REM DIRINDEX 1\6,1\2\7,1\2\8,1\2\9,1\3\10,1\3\11,1\4\12,1\4\13,1\4\14,1\5\15,1\5\16,1\5\17
REM DIRNAME cjc040,folder01,folder02,folder03,folder04,folder05,folder06,folder07,folder08,folder09,folder10,folder11,folder12,folder13,folder14,folder15,folder16
TITLE ""
FILE "P2Q_j_1282-1295.mp3" MP3
  TRACK 01 AUDIO
    TITLE "12:cjc040_0590"
    INDEX 01 00:00:00
  TRACK 02 AUDIO
    TITLE "0:"
    INDEX 01 00:01:44
  TRACK 03 AUDIO
    TITLE "13:cjc040_0591"
    INDEX 01 00:02:22
  TRACK 04 AUDIO
    TITLE "0:"
    INDEX 01 00:03:64
  TRACK 05 AUDIO
    TITLE "14:cjc040_0592"
    INDEX 01 00:04:44
  TRACK 06 AUDIO
    TITLE "0:"
    INDEX 01 00:08:36
  TRACK 07 AUDIO
    TITLE "12:cjc040_0593"
    INDEX 01 00:09:18
  TRACK 08 AUDIO
    TITLE "0:"
    INDEX 01 00:10:65
  TRACK 09 AUDIO
    TITLE "13:cjc040_0594"
    INDEX 01 00:11:50
  TRACK 10 AUDIO
    TITLE "0:"
    INDEX 01 00:15:23
  TRACK 11 AUDIO
    TITLE "14:cjc040_0595"
    INDEX 01 00:15:72
  TRACK 12 AUDIO
    TITLE "0:"
    INDEX 01 00:21:37
  TRACK 13 AUDIO
    TITLE "12:cjc040_0596"
    INDEX 01 00:22:23
  TRACK 14 AUDIO
    TITLE "0:"
    INDEX 01 00:24:31
  TRACK 15 AUDIO
    TITLE "13:cjc040_0597"
    INDEX 01 00:25:03
  TRACK 16 AUDIO
    TITLE "0:"
    INDEX 01 00:27:47
  TRACK 17 AUDIO
    TITLE "14:cjc040_0598"
    INDEX 01 00:28:27
  TRACK 18 AUDIO
    TITLE "0:"
    INDEX 01 00:33:05
  TRACK 19 AUDIO
    TITLE "12:cjc040_0599"
    INDEX 01 00:33:56
  TRACK 20 AUDIO
    TITLE "0:"
    INDEX 01 00:35:53
  TRACK 21 AUDIO
    TITLE "13:cjc040_0600"
    INDEX 01 00:36:35
  TRACK 22 AUDIO
    TITLE "0:"
    INDEX 01 00:38:14
  TRACK 23 AUDIO
    TITLE "14:cjc040_0601"
    INDEX 01 00:38:69
  TRACK 24 AUDIO
    TITLE "0:"
    INDEX 01 00:41:71
  TRACK 25 AUDIO
    TITLE "12:cjc040_0602"
    INDEX 01 00:42:55
  TRACK 26 AUDIO
    TITLE "0:"
    INDEX 01 00:44:16
  TRACK 27 AUDIO
    TITLE "13:cjc040_0603"
    INDEX 01 00:44:73
  TRACK 28 AUDIO
    TITLE "0:"
    INDEX 01 00:46:58
  TRACK 29 AUDIO
    TITLE "14:cjc040_0604"
    INDEX 01 00:47:38
  TRACK 30 AUDIO
    TITLE "0:"
    INDEX 01 00:51:07
  TRACK 31 AUDIO
    TITLE "12:cjc040_0605"
    INDEX 01 00:51:63
  TRACK 32 AUDIO
    TITLE "0:"
    INDEX 01 00:53:19
  TRACK 33 AUDIO
    TITLE "13:cjc040_0606"
    INDEX 01 00:54:03
  TRACK 34 AUDIO
    TITLE "0:"
    INDEX 01 00:56:16
  TRACK 35 AUDIO
    TITLE "14:cjc040_0607"
    INDEX 01 00:56:69
  TRACK 36 AUDIO
    TITLE "0:"
    INDEX 01 01:00:53
  TRACK 37 AUDIO
    TITLE "12:cjc040_0608"
    INDEX 01 01:01:33
  TRACK 38 AUDIO
    TITLE "0:"
    INDEX 01 01:03:08
  TRACK 39 AUDIO
    TITLE "13:cjc040_0609"
    INDEX 01 01:03:69
  TRACK 40 AUDIO
    TITLE "0:"
    INDEX 01 01:06:08
  TRACK 41 AUDIO
    TITLE "14:cjc040_0610"
    INDEX 01 01:06:63
  TRACK 42 AUDIO
    TITLE "0:"
    INDEX 01 01:11:47
  TRACK 43 AUDIO
    TITLE "12:cjc040_0611"
    INDEX 01 01:12:24
  TRACK 44 AUDIO
    TITLE "0:"
    INDEX 01 01:13:65
  TRACK 45 AUDIO
    TITLE "13:cjc040_0612"
    INDEX 01 01:14:53
  TRACK 46 AUDIO
    TITLE "0:"
    INDEX 01 01:16:63
  TRACK 47 AUDIO
    TITLE "14:cjc040_0613"
    INDEX 01 01:17:41
  TRACK 48 AUDIO
    TITLE "0:"
    INDEX 01 01:21:35
  TRACK 49 AUDIO
    TITLE "12:cjc040_0614"
    INDEX 01 01:22:17
  TRACK 50 AUDIO
    TITLE "0:"
    INDEX 01 01:23:56
  TRACK 51 AUDIO
    TITLE "13:cjc040_0615"
    INDEX 01 01:24:36
  TRACK 52 AUDIO
    TITLE "0:"
    INDEX 01 01:26:07
  TRACK 53 AUDIO
    TITLE "14:cjc040_0616"
    INDEX 01 01:26:62
  TRACK 54 AUDIO
    TITLE "0:"
    INDEX 01 01:32:13
  TRACK 55 AUDIO
    TITLE "12:cjc040_0617"
    INDEX 01 01:32:68
  TRACK 56 AUDIO
    TITLE "0:"
    INDEX 01 01:34:14
  TRACK 57 AUDIO
    TITLE "13:cjc040_0618"
    INDEX 01 01:35:02
  TRACK 58 AUDIO
    TITLE "0:"
    INDEX 01 01:36:29
  TRACK 59 AUDIO
    TITLE "14:cjc040_0619"
    INDEX 01 01:37:09
  TRACK 60 AUDIO
    TITLE "0:"
    INDEX 01 01:41:71
  TRACK 61 AUDIO
    TITLE "12:cjc040_0620"
    INDEX 01 01:42:55
  TRACK 62 AUDIO
    TITLE "0:"
    INDEX 01 01:44:64
  TRACK 63 AUDIO
    TITLE "13:cjc040_0621"
    INDEX 01 01:45:44
  TRACK 64 AUDIO
    TITLE "0:"
    INDEX 01 01:47:70
  TRACK 65 AUDIO
    TITLE "14:cjc040_0622"
    INDEX 01 01:48:44
  TRACK 66 AUDIO
    TITLE "0:"
    INDEX 01 01:53:74
  TRACK 67 AUDIO
    TITLE "12:cjc040_0623"
    INDEX 01 01:54:58
  TRACK 68 AUDIO
    TITLE "0:"
    INDEX 01 01:56:36
  TRACK 69 AUDIO
    TITLE "13:cjc040_0624"
    INDEX 01 01:57:15
  TRACK 70 AUDIO
    TITLE "0:"
    INDEX 01 01:59:44
  TRACK 71 AUDIO
    TITLE "14:cjc040_0625"
    INDEX 01 02:00:22
  TRACK 72 AUDIO
    TITLE "0:"
    INDEX 01 02:05:05
  TRACK 73 AUDIO
    TITLE "12:cjc040_0626"
    INDEX 01 02:05:60
  TRACK 74 AUDIO
    TITLE "0:"
    INDEX 01 02:07:14
  TRACK 75 AUDIO
    TITLE "13:cjc040_0627"
    INDEX 01 02:07:71
  TRACK 76 AUDIO
    TITLE "0:"
    INDEX 01 02:09:52
  TRACK 77 AUDIO
    TITLE "14:cjc040_0628"
    INDEX 01 02:10:32
  TRACK 78 AUDIO
    TITLE "0:"
    INDEX 01 02:15:11
  TRACK 79 AUDIO
    TITLE "12:cjc040_0629"
    INDEX 01 02:15:70
  TRACK 80 AUDIO
    TITLE "0:"
    INDEX 01 02:18:02
  TRACK 81 AUDIO
    TITLE "13:cjc040_0630"
    INDEX 01 02:18:65
  TRACK 82 AUDIO
    TITLE "0:"
    INDEX 01 02:21:10
  TRACK 83 AUDIO
    TITLE "14:cjc040_0631"
    INDEX 01 02:21:65
  TRACK 84 AUDIO
    TITLE "0:"
    INDEX 01 02:27:01
